<svg height="512pt" viewBox="0 0 512 512" width="512pt" xmlns="http://www.w3.org/2000/svg"><path d="m474.378906 256c0 60.296875-24.441406 114.894531-63.96875 154.410156-39.515625 39.527344-94.113281 63.96875-154.410156 63.96875s-114.894531-24.441406-154.410156-63.96875c-39.527344-39.515625-63.96875-94.113281-63.96875-154.410156s24.441406-114.894531 63.96875-154.410156c39.515625-39.527344 94.113281-63.96875 154.410156-63.96875s114.894531 24.441406 154.410156 63.96875c39.527344 39.515625 63.96875 94.113281 63.96875 154.410156zm0 0" fill="#ffe76c"/><path d="m144.878906 398.027344c-36.359375-36.34375-58.839844-86.566406-58.839844-142.027344s22.480469-105.683594 58.839844-142.027344c32.9375-32.949218 77.269532-54.5 126.574219-58.253906-5.101563-.386719-10.253906-.582031-15.453125-.582031-55.460938 0-105.683594 22.480469-142.027344 58.835937-36.355468 36.34375-58.835937 86.566406-58.835937 142.027344s22.480469 105.683594 58.835937 142.027344c36.34375 36.355468 86.566406 58.835937 142.027344 58.835937 5.199219 0 10.351562-.195312 15.453125-.582031-49.304687-3.753906-93.636719-25.304688-126.574219-58.253906zm0 0" fill="#ffb44d"/><path d="m512 256-26.785156 15.453125-29.378906-15.453125c0-55.175781-22.367188-105.140625-58.535157-141.300781l10.652344-30.738281 29.070313-8.984376c46.316406 46.335938 74.976562 110.332032 74.976562 181.023438zm0 0" fill="#1fd7c3"/><path d="m437.023438 437.023438c-46.335938 46.316406-110.332032 74.976562-181.023438 74.976562l-15.453125-28.84375 15.453125-27.320312c55.175781 0 105.140625-22.367188 141.300781-58.535157l28.164063 7.558594zm0 0" fill="#1fd7c3"/><path d="m114.699219 397.300781-9.621094 30.738281-30.101563 8.984376c-46.316406-46.335938-74.976562-110.332032-74.976562-181.023438l27.816406-10.300781 28.347656 10.300781c0 55.175781 22.367188 105.140625 58.535157 141.300781zm0 0" fill="#1fd7c3"/><path d="m256 0c-70.691406 0-134.6875 28.660156-181.023438 74.976562l5.894532 35.769532 33.828125 3.953125c36.160156-36.167969 86.125-58.535157 141.300781-58.535157l15.453125-29.894531zm0 0" fill="#1fd7c3"/><g fill="#00bbc9"><path d="m437.023438 74.976562-39.722657 39.722657c-36.160156-36.167969-86.125-58.535157-141.300781-58.535157v-56.164062c70.691406 0 134.6875 28.660156 181.023438 74.976562zm0 0"/><path d="m512 256c0 70.691406-28.660156 134.6875-74.976562 181.023438l-39.722657-39.722657c36.167969-36.160156 58.535157-86.125 58.535157-141.300781zm0 0"/><path d="m256 455.835938v56.164062c-70.691406 0-134.6875-28.660156-181.023438-74.976562l39.722657-39.722657c36.160156 36.167969 86.125 58.535157 141.300781 58.535157zm0 0"/><path d="m114.699219 114.699219c-36.167969 36.160156-58.535157 86.125-58.535157 141.300781h-56.164062c0-70.691406 28.660156-134.6875 74.976562-181.023438zm0 0"/><path d="m278.632812 376.617188-16.96875-141.863282h-11.328124l-16.96875 141.863282c-.839844 7.011718 4.636718 13.179687 11.695312 13.179687h21.875c7.058594 0 12.535156-6.167969 11.695312-13.179687zm0 0"/></g><path d="m257.886719 282.792969c88.980469 130 189.171875 46.800781 126.960937-3.476563 50.507813-40.816406-6.03125-103.328125-76.707031-55.839844 54.277344-73.066406-10.320313-133.691406-52.140625-81.941406-41.820312-51.75-106.417969 8.871094-52.140625 81.941406-70.675781-47.484374-127.214844 15.023438-76.707031 55.839844-62.210938 50.277344 37.980468 133.476563 126.960937 3.476563.425781-.621094 1.132813-1 1.886719-1s1.460938.378906 1.886719 1zm0 0" fill="#1fd7c3"/></svg>